<mxfile host="8d595d49-2a0c-446d-9df8-c4fcec1ab485" modified="2020-08-22T03:32:14.447Z" agent="5.0 (Windows NT 10.0; WOW64) AppleWebKit/537.36 (KHTML, like Gecko) Code/1.48.1 Chrome/78.0.3904.130 Electron/7.3.2 Safari/537.36" etag="iBeLIniuubfxcuyGe_8Q" version="13.1.3">
    <diagram id="6hGFLwfOUW9BJ-s0fimq" name="Page-1">
        <mxGraphModel dx="1953" dy="512" grid="1" gridSize="10" guides="1" tooltips="1" connect="1" arrows="1" fold="1" page="1" pageScale="1" pageWidth="827" pageHeight="1169" math="0" shadow="0">
            <root>
                <mxCell id="0"/>
                <mxCell id="1" parent="0"/>
                <mxCell id="2" value="" style="rounded=0;whiteSpace=wrap;html=1;" vertex="1" parent="1">
                    <mxGeometry y="80" width="180" height="440" as="geometry"/>
                </mxCell>
                <mxCell id="3" value="客户端" style="text;html=1;align=center;verticalAlign=middle;resizable=0;points=[];autosize=1;" vertex="1" parent="1">
                    <mxGeometry x="60" y="40" width="50" height="20" as="geometry"/>
                </mxCell>
                <mxCell id="9" style="edgeStyle=orthogonalEdgeStyle;rounded=0;orthogonalLoop=1;jettySize=auto;html=1;exitX=0;exitY=0.25;exitDx=0;exitDy=0;entryX=1.022;entryY=0.227;entryDx=0;entryDy=0;entryPerimeter=0;" edge="1" parent="1" source="4" target="2">
                    <mxGeometry relative="1" as="geometry">
                        <mxPoint x="320" y="183" as="targetPoint"/>
                    </mxGeometry>
                </mxCell>
                <mxCell id="4" value="" style="rounded=0;whiteSpace=wrap;html=1;" vertex="1" parent="1">
                    <mxGeometry x="630" y="70" width="320" height="450" as="geometry"/>
                </mxCell>
                <mxCell id="5" value="服务端" style="text;html=1;align=center;verticalAlign=middle;resizable=0;points=[];autosize=1;" vertex="1" parent="1">
                    <mxGeometry x="777" y="41" width="50" height="20" as="geometry"/>
                </mxCell>
                <mxCell id="7" value="" style="endArrow=classic;html=1;entryX=0.006;entryY=0.153;entryDx=0;entryDy=0;entryPerimeter=0;exitX=1.017;exitY=0.052;exitDx=0;exitDy=0;exitPerimeter=0;" edge="1" parent="1" source="2">
                    <mxGeometry width="50" height="50" relative="1" as="geometry">
                        <mxPoint x="310" y="103" as="sourcePoint"/>
                        <mxPoint x="631.0799999999999" y="101.85000000000002" as="targetPoint"/>
                        <Array as="points">
                            <mxPoint x="470" y="102"/>
                        </Array>
                    </mxGeometry>
                </mxCell>
                <mxCell id="8" value="1.客户端发送服务器端一个请求，请求相应的资源" style="text;html=1;align=center;verticalAlign=middle;resizable=0;points=[];autosize=1;" vertex="1" parent="1">
                    <mxGeometry x="290" y="80" width="280" height="20" as="geometry"/>
                </mxCell>
                <mxCell id="10" value="2.服务端给客户端返回响应，在响应头中携带两个内容&lt;br&gt;分别是文件的唯一标识eTag，文件的最后一次修改时间last-modified" style="text;html=1;align=center;verticalAlign=middle;resizable=0;points=[];autosize=1;" vertex="1" parent="1">
                    <mxGeometry x="245" y="140" width="370" height="30" as="geometry"/>
                </mxCell>
                <mxCell id="11" value="3.客户端接收到响应中的eTag&lt;br&gt;和last-modified并且保存在客户端中&lt;br&gt;但是改名了，eTag改名为if-none-match，&lt;br&gt;把last-modified改名为if-modified-since" style="text;html=1;align=center;verticalAlign=middle;resizable=0;points=[];autosize=1;" vertex="1" parent="1">
                    <mxGeometry x="-25" y="120" width="230" height="60" as="geometry"/>
                </mxCell>
                <mxCell id="12" value="" style="endArrow=classic;html=1;entryX=-0.017;entryY=0.531;entryDx=0;entryDy=0;entryPerimeter=0;" edge="1" parent="1">
                    <mxGeometry width="50" height="50" relative="1" as="geometry">
                        <mxPoint x="180" y="267" as="sourcePoint"/>
                        <mxPoint x="626.94" y="265.95000000000005" as="targetPoint"/>
                    </mxGeometry>
                </mxCell>
                <mxCell id="13" value="4.客户端第二次发送给服务器端请求，请求指定的资源，会携带两个字段&lt;br&gt;if-none-match和if-modified-since" style="text;html=1;align=center;verticalAlign=middle;resizable=0;points=[];autosize=1;" vertex="1" parent="1">
                    <mxGeometry x="175" y="235" width="400" height="30" as="geometry"/>
                </mxCell>
                <mxCell id="14" value="5.服务器端接收到了客户端发送的if-none-match和&lt;br&gt;if-modified-since，&lt;br&gt;然后先拿if-none-match和自己的eTag进行比较，如果相同，&lt;br&gt;则继续比较if-modified-since和last-modified，如果还是相同&amp;nbsp;&lt;br&gt;则读取缓存，如果有一个不相同，则返回新的响应" style="text;html=1;align=center;verticalAlign=middle;resizable=0;points=[];autosize=1;" vertex="1" parent="1">
                    <mxGeometry x="632" y="170" width="330" height="80" as="geometry"/>
                </mxCell>
                <mxCell id="15" value="" style="endArrow=classic;html=1;entryX=1.011;entryY=0.627;entryDx=0;entryDy=0;entryPerimeter=0;" edge="1" parent="1" target="2">
                    <mxGeometry width="50" height="50" relative="1" as="geometry">
                        <mxPoint x="620" y="356" as="sourcePoint"/>
                        <mxPoint x="610" y="320" as="targetPoint"/>
                    </mxGeometry>
                </mxCell>
                <mxCell id="16" value="6.如果走缓存，则服务器响应的状态码是304，并且不需要设置响应内容" style="text;html=1;align=center;verticalAlign=middle;resizable=0;points=[];autosize=1;" vertex="1" parent="1">
                    <mxGeometry x="205" y="326" width="390" height="20" as="geometry"/>
                </mxCell>
                <mxCell id="17" value="7.如果接受到的状态码是304，&lt;br&gt;则直接自动读取缓存" style="text;html=1;align=center;verticalAlign=middle;resizable=0;points=[];autosize=1;" vertex="1" parent="1">
                    <mxGeometry y="335" width="180" height="30" as="geometry"/>
                </mxCell>
                <mxCell id="18" value="" style="endArrow=classic;html=1;entryX=1.011;entryY=0.882;entryDx=0;entryDy=0;entryPerimeter=0;" edge="1" parent="1" target="2">
                    <mxGeometry width="50" height="50" relative="1" as="geometry">
                        <mxPoint x="620" y="468" as="sourcePoint"/>
                        <mxPoint x="620" y="420" as="targetPoint"/>
                    </mxGeometry>
                </mxCell>
                <mxCell id="19" value="8.如果不走缓存，则响应的状态码是200，并且返回新的资源&lt;br&gt;还要返回新的eTag和新的last-modified" style="text;html=1;align=center;verticalAlign=middle;resizable=0;points=[];autosize=1;" vertex="1" parent="1">
                    <mxGeometry x="210" y="430" width="330" height="30" as="geometry"/>
                </mxCell>
            </root>
        </mxGraphModel>
    </diagram>
</mxfile>